Coordinates
version=1
nRows=14
nColumns=33
inDegrees=yes

Units are S.I. units (second, meters, Newtons, ...)
Angles are in degrees.

endheader
time	ground_thorax_rot_x	ground_thorax_rot_y	ground_thorax_rot_z	ground_thorax_tx	ground_thorax_ty	ground_thorax_tz	clav_prot_r	clav_elev_r	scapula_abduction_r	scapula_elevation_r	scapula_upward_rot_r	scapula_winging_r	shoulder_elv_r	plane_of_elev_r	axial_rot_r	elbow_flexion_r	pro_sup_r	wrist_flex_r	wrist_dev_r	clav_prot_l	clav_elev_l	scapula_abduction_l	scapula_elevation_l	scapula_upward_rot_l	scapula_winging_l	shoulder_elv_l	plane_of_elev_l	axial_rot_l	elbow_flexion_l	pro_sup_l	wrist_flex_l	wrist_dev_l	
7.9800	-23.787330	-33.037451	52.081612	-101.306800	776.416919	9.562572	7.979579	-45.000000	37.111157	-45.000000	-44.981638	-1538.824285	-3894.764140	29.969983	72.685911	730.203051	20.404910	17.777068	11.156706	13.981037	37.457749	-31.974314	-45.000000	-45.000000	80.644935	-2451.765491	21.920649	-44.901057	-352.463826	17.434321	10.385709	-18.666482	
7.9900	-24.034399	-32.854773	51.718618	-103.165951	777.100178	9.538868	7.964579	-45.000000	37.100640	-45.000000	-44.967785	-1538.828907	-3894.573790	30.113916	72.355915	730.272069	19.987006	17.800282	11.143548	14.042532	37.530376	-32.092175	-45.000000	-45.000000	80.747708	-2451.617780	22.013818	-44.525841	-352.362803	16.826403	10.396839	-18.657289	
8.0000	-24.290166	-32.663119	51.333682	-105.084385	777.841097	9.510049	7.947736	-45.000000	37.091618	-45.000000	-44.942979	-1538.831620	-3894.379854	30.254761	72.020454	730.354898	19.569672	17.828583	11.129111	14.106778	37.606978	-32.205568	-45.000000	-45.000000	80.848056	-2451.468557	22.106742	-44.132960	-352.250836	16.184197	10.406258	-18.649654	
8.0100	-24.553244	-32.462971	50.929915	-107.064654	778.638355	9.474582	7.922293	-45.000000	37.094318	-45.000000	-44.899803	-1538.823663	-3894.172181	30.384363	71.667320	730.446936	19.159495	17.864193	11.122320	14.176898	37.705991	-32.315886	-45.000000	-45.000000	80.939835	-2451.304794	22.195520	-43.739674	-352.133504	15.525500	10.406201	-18.645073	
8.0200	-24.828608	-32.247490	50.498926	-109.107711	779.489610	9.430932	7.893339	-45.000000	37.105910	-45.000000	-44.818950	-1538.820193	-3893.966211	30.504017	71.313574	730.543721	18.762000	17.903890	11.113759	14.247626	37.800465	-32.430566	-45.000000	-45.000000	81.030567	-2451.145272	22.286591	-43.347246	-352.014558	14.863963	10.399505	-18.644213	
8.0300	-25.125201	-32.011286	50.027747	-111.214370	780.392479	9.377861	7.858810	-45.000000	37.142302	-45.000000	-44.683924	-1538.826139	-3893.766789	30.619035	70.948472	730.642263	18.381732	17.947936	11.103510	14.311772	37.877720	-32.571743	-45.000000	-45.000000	81.127701	-2450.996179	22.377419	-42.966216	-351.905367	14.217468	10.388682	-18.647082	
8.0400	-25.449866	-31.746046	49.502446	-113.384614	781.344621	9.314705	7.817689	-45.000000	37.209393	-45.000000	-44.463543	-1538.849761	-3893.580400	30.727846	70.598183	730.744918	18.025931	17.996439	11.085114	14.369384	37.928739	-32.746178	-45.000000	-45.000000	81.236182	-2450.865615	22.473030	-42.587565	-351.801361	13.594984	10.374924	-18.655537	
8.0500	-25.801133	-31.451904	48.926078	-115.618260	782.344028	9.241326	7.770464	-45.000000	37.304683	-45.000000	-44.146156	-1538.890951	-3893.404028	30.830383	70.271430	730.846031	17.699057	18.048397	11.057743	14.421687	37.961513	-32.949959	-45.000000	-45.000000	81.350813	-2450.743308	22.574344	-42.203759	-351.705379	13.000969	10.358209	-18.669020	
8.0600	-26.176854	-31.126023	48.298415	-117.914143	783.388644	9.158020	7.718166	-45.000000	37.417375	-45.000000	-43.724706	-1538.950219	-3893.239912	30.921674	69.987623	730.942132	17.402748	18.102485	11.019179	14.474147	37.979037	-33.168103	-45.000000	-45.000000	81.467980	-2450.628675	22.689368	-41.804673	-351.606189	12.429946	10.337881	-18.688691	
8.0700	-26.567849	-30.777592	47.634950	-120.270843	784.476344	9.065216	7.661650	-45.000000	37.542109	-45.000000	-43.235987	-1539.023015	-3893.083019	31.006559	69.735452	731.036542	17.133789	18.158859	10.969144	14.524999	37.984652	-33.398325	-45.000000	-45.000000	81.583134	-2450.516324	22.806955	-41.394930	-351.510949	11.878310	10.319997	-18.712060	
8.0800	-26.965161	-30.415799	46.958026	-122.686303	785.604588	8.963345	7.607892	-45.000000	37.668689	-45.000000	-42.736175	-1539.107099	-3892.931417	31.097186	69.508329	731.125134	16.888880	18.214829	10.904402	14.572142	37.971471	-33.631908	-45.000000	-45.000000	81.697441	-2450.398572	22.924939	-40.987363	-351.419784	11.337438	10.310264	-18.736781	
8.0900	-27.362871	-30.045985	46.273356	-125.157823	786.770252	8.852714	7.553192	-45.000000	37.796695	-45.000000	-42.235195	-1539.191706	-3892.776020	31.185773	69.295929	731.213729	16.666349	18.272627	10.834633	14.620156	37.960404	-33.866489	-45.000000	-45.000000	81.810871	-2450.275050	23.037713	-40.593378	-351.337489	10.800287	10.296161	-18.761815	
8.1000	-27.756621	-29.669007	45.592391	-127.681936	787.969672	8.733694	7.501054	-45.000000	37.922237	-45.000000	-41.751280	-1539.281281	-3892.615778	31.277439	69.090813	731.301486	16.463274	18.331130	10.757292	14.665042	37.943534	-34.101826	-45.000000	-45.000000	81.927231	-2450.145860	23.144139	-40.222853	-351.260013	10.260120	10.282543	-18.786831	
8.1100	-28.149305	-29.283579	44.903608	-130.254554	789.198804	8.606848	7.443886	-45.000000	38.051571	-45.000000	-41.254180	-1539.367544	-3892.446808	31.357566	68.894000	731.394841	16.279663	18.393337	10.681902	14.712680	37.943068	-34.339359	-45.000000	-45.000000	82.049382	-2450.015501	23.244110	-39.874753	-351.187944	9.713850	10.254353	-18.812879	
